<svg xmlns="http://www.w3.org/2000/svg" xmlns:xlink="http://www.w3.org/1999/xlink" xmlns:lucid="lucid" width="2042" height="1833"><g transform="translate(521 1061)" lucid:page-tab-id="0_0"><path d="M-500-1500h2000v2500H-500z" fill="#fff"/><path d="M-500-413.5h360v331h-360z" stroke="#333" stroke-width="2" fill="#fff"/><path d="M-500-370.83h360m-360 224.16h360" stroke="#333" stroke-width="2" fill="none"/><use xlink:href="#a" transform="matrix(1,0,0,1,-492,-405.5) translate(124.5 17.944444444444443)"/><use xlink:href="#b" transform="matrix(1,0,0,1,-488,-362.8333333333333) translate(0 28.94444444444445)"/><use xlink:href="#c" transform="matrix(1,0,0,1,-488,-362.8333333333333) translate(13.518518518518519 28.94444444444445)"/><use xlink:href="#d" transform="matrix(1,0,0,1,-488,-362.8333333333333) translate(125.67901234567901 28.94444444444445)"/><use xlink:href="#e" transform="matrix(1,0,0,1,-488,-362.8333333333333) translate(138.02469135802468 28.94444444444445)"/><use xlink:href="#b" transform="matrix(1,0,0,1,-488,-362.8333333333333) translate(0 55.61111111111112)"/><use xlink:href="#f" transform="matrix(1,0,0,1,-488,-362.8333333333333) translate(13.518518518518519 55.61111111111112)"/><use xlink:href="#d" transform="matrix(1,0,0,1,-488,-362.8333333333333) translate(94.87654320987653 55.61111111111112)"/><use xlink:href="#g" transform="matrix(1,0,0,1,-488,-362.8333333333333) translate(107.22222222222221 55.61111111111112)"/><use xlink:href="#b" transform="matrix(1,0,0,1,-488,-362.8333333333333) translate(0 82.27777777777777)"/><use xlink:href="#h" transform="matrix(1,0,0,1,-488,-362.8333333333333) translate(13.518518518518519 82.27777777777777)"/><use xlink:href="#d" transform="matrix(1,0,0,1,-488,-362.8333333333333) translate(152.8395061728395 82.27777777777777)"/><use xlink:href="#e" transform="matrix(1,0,0,1,-488,-362.8333333333333) translate(165.18518518518516 82.27777777777777)"/><use xlink:href="#b" transform="matrix(1,0,0,1,-488,-362.8333333333333) translate(0 108.94444444444446)"/><use xlink:href="#i" transform="matrix(1,0,0,1,-488,-362.8333333333333) translate(13.518518518518519 108.94444444444446)"/><use xlink:href="#d" transform="matrix(1,0,0,1,-488,-362.8333333333333) translate(76.29629629629629 108.94444444444446)"/><use xlink:href="#e" transform="matrix(1,0,0,1,-488,-362.8333333333333) translate(88.64197530864197 108.94444444444446)"/><use xlink:href="#b" transform="matrix(1,0,0,1,-488,-362.8333333333333) translate(0 135.61111111111111)"/><use xlink:href="#j" transform="matrix(1,0,0,1,-488,-362.8333333333333) translate(13.518518518518519 135.61111111111111)"/><use xlink:href="#d" transform="matrix(1,0,0,1,-488,-362.8333333333333) translate(85.06172839506172 135.61111111111111)"/><use xlink:href="#e" transform="matrix(1,0,0,1,-488,-362.8333333333333) translate(97.4074074074074 135.61111111111111)"/><use xlink:href="#b" transform="matrix(1,0,0,1,-488,-362.8333333333333) translate(0 162.27777777777777)"/><use xlink:href="#k" transform="matrix(1,0,0,1,-488,-362.8333333333333) translate(13.518518518518519 162.27777777777777)"/><use xlink:href="#d" transform="matrix(1,0,0,1,-488,-362.8333333333333) translate(86.35802469135803 162.27777777777777)"/><use xlink:href="#e" transform="matrix(1,0,0,1,-488,-362.8333333333333) translate(98.70370370370371 162.27777777777777)"/><use xlink:href="#b" transform="matrix(1,0,0,1,-488,-362.8333333333333) translate(0 188.94444444444446)"/><use xlink:href="#l" transform="matrix(1,0,0,1,-488,-362.8333333333333) translate(13.518518518518519 188.94444444444446)"/><use xlink:href="#d" transform="matrix(1,0,0,1,-488,-362.8333333333333) translate(55.49382716049383 188.94444444444446)"/><use xlink:href="#m" transform="matrix(1,0,0,1,-488,-362.8333333333333) translate(67.8395061728395 188.94444444444446)"/><path d="M-138-248h276" stroke="#5e5e5e" stroke-width="2" fill="none"/><path d="M-137.97-247.03H-139v-1.94h1.03zM139-247.03h-1.03v-1.94H139z" stroke="#5e5e5e" stroke-width=".05" fill="#5e5e5e"/><path d="M780-1040h360v224H780z" stroke="#333" stroke-width="2" fill="#fff"/><path d="M780-997.33h360m-360 117.5h360" stroke="#333" stroke-width="2" fill="none"/><use xlink:href="#n" transform="matrix(1,0,0,1,788,-1032) translate(133.820987654321 17.944444444444443)"/><use xlink:href="#b" transform="matrix(1,0,0,1,792,-989.3333333333334) translate(0 28.77777777777778)"/><use xlink:href="#o" transform="matrix(1,0,0,1,792,-989.3333333333334) translate(13.518518518518519 28.77777777777778)"/><use xlink:href="#d" transform="matrix(1,0,0,1,792,-989.3333333333334) translate(75.18518518518519 28.77777777777778)"/><use xlink:href="#e" transform="matrix(1,0,0,1,792,-989.3333333333334) translate(87.53086419753087 28.77777777777778)"/><use xlink:href="#b" transform="matrix(1,0,0,1,792,-989.3333333333334) translate(0 55.44444444444445)"/><use xlink:href="#p" transform="matrix(1,0,0,1,792,-989.3333333333334) translate(13.518518518518519 55.44444444444445)"/><use xlink:href="#d" transform="matrix(1,0,0,1,792,-989.3333333333334) translate(67.71604938271605 55.44444444444445)"/><use xlink:href="#e" transform="matrix(1,0,0,1,792,-989.3333333333334) translate(80.06172839506173 55.44444444444445)"/><use xlink:href="#b" transform="matrix(1,0,0,1,792,-989.3333333333334) translate(0 82.11111111111111)"/><use xlink:href="#q" transform="matrix(1,0,0,1,792,-989.3333333333334) translate(13.518518518518519 82.11111111111111)"/><use xlink:href="#d" transform="matrix(1,0,0,1,792,-989.3333333333334) translate(80.18518518518518 82.11111111111111)"/><use xlink:href="#m" transform="matrix(1,0,0,1,792,-989.3333333333334) translate(92.53086419753086 82.11111111111111)"/><path d="M140-333.5h360v171H140z" stroke="#333" stroke-width="2" fill="#fff"/><path d="M140-290.83h360m-360 64.16h360" stroke="#333" stroke-width="2" fill="none"/><use xlink:href="#r" transform="matrix(1,0,0,1,148,-325.5) translate(143.6358024691358 17.944444444444443)"/><use xlink:href="#b" transform="matrix(1,0,0,1,152,-282.8333333333333) translate(0 28.944444444444443)"/><use xlink:href="#s" transform="matrix(1,0,0,1,152,-282.8333333333333) translate(13.518518518518519 28.944444444444443)"/><use xlink:href="#d" transform="matrix(1,0,0,1,152,-282.8333333333333) translate(39.382716049382715 28.944444444444443)"/><use xlink:href="#m" transform="matrix(1,0,0,1,152,-282.8333333333333) translate(51.72839506172839 28.944444444444443)"/><path d="M660-319h360v171H660z" stroke="#333" stroke-width="2" fill="#fff"/><path d="M660-276.33h360m-360 64.16h360" stroke="#333" stroke-width="2" fill="none"/><use xlink:href="#t" transform="matrix(1,0,0,1,668,-311) translate(124.53086419753086 17.944444444444443)"/><path d="M1140-700h360v171h-360z" stroke="#333" stroke-width="2" fill="#fff"/><path d="M1140-657.33h360m-360 64.16h360" stroke="#333" stroke-width="2" fill="none"/><use xlink:href="#u" transform="matrix(1,0,0,1,1148,-692) translate(127.61728395061729 17.944444444444443)"/><path d="M660 580h360v171H660z" stroke="#333" stroke-width="2" fill="#fff"/><path d="M660 622.67h360m-360 64.16h360" stroke="#333" stroke-width="2" fill="none"/><use xlink:href="#v" transform="matrix(1,0,0,1,668,588) translate(122.06172839506172 17.944444444444443)"/><use xlink:href="#b" transform="matrix(1,0,0,1,672,630.6666666666666) translate(0 28.944444444444443)"/><use xlink:href="#w" transform="matrix(1,0,0,1,672,630.6666666666666) translate(13.518518518518519 28.944444444444443)"/><path d="M660 201h360v171H660z" stroke="#333" stroke-width="2" fill="#fff"/><path d="M660 243.67h360m-360 64.16h360" stroke="#333" stroke-width="2" fill="none"/><use xlink:href="#x" transform="matrix(1,0,0,1,668,209) translate(96.16666666666667 17.944444444444443)"/><use xlink:href="#b" transform="matrix(1,0,0,1,672,251.66666666666669) translate(0 28.944444444444443)"/><use xlink:href="#w" transform="matrix(1,0,0,1,672,251.66666666666669) translate(13.518518518518519 28.944444444444443)"/><path d="M840 578V403.75" stroke="#5e5e5e" stroke-width="2" fill="none"/><path d="M840.98 579H839v-1.03H841z" stroke="#5e5e5e" stroke-width=".05" fill="#5e5e5e"/><path d="M840 374.4l-14.85 14.86L840 404.1l14.85-14.84z" stroke="#5e5e5e" stroke-width="2" fill="#fff"/><path d="M840 169.25V-146" stroke="#5e5e5e" stroke-width="2" fill="none"/><path d="M840 198.6l14.85-14.86L840 168.9l-14.85 14.84z" stroke="#5e5e5e" stroke-width="2" fill="#fff"/><path d="M840.98-145.97H839V-147H841z" stroke="#5e5e5e" stroke-width=".05" fill="#5e5e5e"/><path d="M140 201h360v171H140z" stroke="#333" stroke-width="2" fill="#fff"/><path d="M140 243.67h360m-360 64.16h360" stroke="#333" stroke-width="2" fill="none"/><g><use xlink:href="#y" transform="matrix(1,0,0,1,148,209) translate(142.4320987654321 17.944444444444443)"/></g><g><use xlink:href="#b" transform="matrix(1,0,0,1,152,251.66666666666669) translate(0 28.944444444444443)"/><use xlink:href="#w" transform="matrix(1,0,0,1,152,251.66666666666669) translate(13.518518518518519 28.944444444444443)"/></g><path d="M502 286.5h126.25" stroke="#5e5e5e" stroke-width="2" fill="none"/><path d="M502.03 287.48H501v-1.96h1.03z" stroke="#5e5e5e" stroke-width=".05" fill="#5e5e5e"/><path d="M657.6 286.5l-14.86-14.85-14.85 14.85 14.84 14.85z" stroke="#5e5e5e" stroke-width="2" fill="#fff"/><path d="M320-160.5v329.75" stroke="#5e5e5e" stroke-width="2" fill="none"/><path d="M320.98-160.47h-1.96v-1.03h1.96z" stroke="#5e5e5e" stroke-width=".05" fill="#5e5e5e"/><path d="M320 198.6l14.85-14.86L320 168.9l-14.85 14.84z" stroke="#5e5e5e" stroke-width="2" fill="#fff"/><path d="M400-700h360v198H400z" stroke="#333" stroke-width="2" fill="#fff"/><path d="M400-657.33h360M400-566.5h360" stroke="#333" stroke-width="2" fill="none"/><g><use xlink:href="#z" transform="matrix(1,0,0,1,408,-692) translate(106.0432098765432 17.944444444444443)"/></g><g><use xlink:href="#b" transform="matrix(1,0,0,1,412,-649.3333333333334) translate(0 28.611111111111114)"/><use xlink:href="#A" transform="matrix(1,0,0,1,412,-649.3333333333334) translate(13.518518518518519 28.611111111111114)"/><use xlink:href="#d" transform="matrix(1,0,0,1,412,-649.3333333333334) translate(49.32098765432099 28.611111111111114)"/><use xlink:href="#e" transform="matrix(1,0,0,1,412,-649.3333333333334) translate(61.666666666666664 28.611111111111114)"/><use xlink:href="#b" transform="matrix(1,0,0,1,412,-649.3333333333334) translate(0 55.27777777777778)"/><use xlink:href="#B" transform="matrix(1,0,0,1,412,-649.3333333333334) translate(13.518518518518519 55.27777777777778)"/><use xlink:href="#d" transform="matrix(1,0,0,1,412,-649.3333333333334) translate(72.71604938271605 55.27777777777778)"/><use xlink:href="#C" transform="matrix(1,0,0,1,412,-649.3333333333334) translate(85.06172839506173 55.27777777777778)"/></g><path d="M320-335.5v-76.25a6 6 0 0 1 6-6h248a6 6 0 0 0 6-6v-52.6" stroke="#5e5e5e" stroke-width="2" fill="none"/><path d="M320.98-334.5h-1.96v-1.03h1.96z" stroke="#5e5e5e" stroke-width=".05" fill="#5e5e5e"/><path d="M580-499l12.5 21.65h-25z" stroke="#5e5e5e" stroke-width="2" fill="#fff"/><path d="M840-321v-90.75a6 6 0 0 0-6-6H586a6 6 0 0 1-6-6v-52.6" stroke="#5e5e5e" stroke-width="2" fill="none"/><path d="M840.98-320H839v-1.03H841z" stroke="#5e5e5e" stroke-width=".05" fill="#5e5e5e"/><path d="M580-499l12.5 21.65h-25z" stroke="#5e5e5e" stroke-width="2" fill="#fff"/><path d="M1320-702v-220a6 6 0 0 0-6-6h-148.35" stroke="#5e5e5e" stroke-width="2" fill="none"/><path d="M1320.97-701h-1.94v-1.03h1.94z" stroke="#5e5e5e" stroke-width=".05" fill="#5e5e5e"/><path d="M1143-928l21.65-12.5v25z" stroke="#5e5e5e" stroke-width="2" fill="#fff"/><path d="M580-702v-50a6 6 0 0 1 6-6h368a6 6 0 0 0 6-6v-26.35" stroke="#5e5e5e" stroke-width="2" fill="none"/><path d="M580.98-701H579v-1.03H581z" stroke="#5e5e5e" stroke-width=".05" fill="#5e5e5e"/><path d="M960-813l12.5 21.65h-25z" stroke="#5e5e5e" stroke-width="2" fill="#fff"/><path d="M1140-333.5h360v251h-360z" stroke="#333" stroke-width="2" fill="#fff"/><path d="M1140-290.83h360m-360 144.16h360" stroke="#333" stroke-width="2" fill="none"/><g><use xlink:href="#D" transform="matrix(1,0,0,1,1148,-325.5) translate(122.24691358024691 17.944444444444443)"/></g><g><use xlink:href="#b" transform="matrix(1,0,0,1,1152,-282.8333333333333) translate(0 28.94444444444445)"/><use xlink:href="#E" transform="matrix(1,0,0,1,1152,-282.8333333333333) translate(13.518518518518519 28.94444444444445)"/><use xlink:href="#d" transform="matrix(1,0,0,1,1152,-282.8333333333333) translate(66.48148148148148 28.94444444444445)"/><use xlink:href="#e" transform="matrix(1,0,0,1,1152,-282.8333333333333) translate(78.82716049382717 28.94444444444445)"/><use xlink:href="#b" transform="matrix(1,0,0,1,1152,-282.8333333333333) translate(0 55.61111111111112)"/><use xlink:href="#F" transform="matrix(1,0,0,1,1152,-282.8333333333333) translate(13.518518518518519 55.61111111111112)"/><use xlink:href="#d" transform="matrix(1,0,0,1,1152,-282.8333333333333) translate(114.62962962962963 55.61111111111112)"/><use xlink:href="#e" transform="matrix(1,0,0,1,1152,-282.8333333333333) translate(126.97530864197532 55.61111111111112)"/><use xlink:href="#b" transform="matrix(1,0,0,1,1152,-282.8333333333333) translate(0 82.27777777777777)"/><use xlink:href="#G" transform="matrix(1,0,0,1,1152,-282.8333333333333) translate(13.518518518518519 82.27777777777777)"/><use xlink:href="#d" transform="matrix(1,0,0,1,1152,-282.8333333333333) translate(75.18518518518519 82.27777777777777)"/><use xlink:href="#g" transform="matrix(1,0,0,1,1152,-282.8333333333333) translate(87.53086419753087 82.27777777777777)"/><use xlink:href="#b" transform="matrix(1,0,0,1,1152,-282.8333333333333) translate(0 108.94444444444446)"/><use xlink:href="#H" transform="matrix(1,0,0,1,1152,-282.8333333333333) translate(13.518518518518519 108.94444444444446)"/><use xlink:href="#d" transform="matrix(1,0,0,1,1152,-282.8333333333333) translate(105.92592592592592 108.94444444444446)"/><use xlink:href="#m" transform="matrix(1,0,0,1,1152,-282.8333333333333) translate(118.27160493827161 108.94444444444446)"/></g><path d="M1320-497.25v161.75" stroke="#5e5e5e" stroke-width="2" fill="none"/><path d="M1320-526.6l-14.85 14.86L1320-496.9l14.85-14.84z" stroke="#5e5e5e" stroke-width="2" fill="#fff"/><path d="M1320.97-334.5h-1.94v-1.03h1.94z" stroke="#5e5e5e" stroke-width=".05" fill="#5e5e5e"/><path d="M1140 0h360v224h-360z" stroke="#333" stroke-width="2" fill="#fff"/><path d="M1140 42.67h360m-360 117.5h360" stroke="#333" stroke-width="2" fill="none"/><g><use xlink:href="#I" transform="matrix(1,0,0,1,1148,8) translate(132.58641975308643 17.944444444444443)"/></g><g><use xlink:href="#b" transform="matrix(1,0,0,1,1152,50.66666666666667) translate(0 28.77777777777778)"/><use xlink:href="#G" transform="matrix(1,0,0,1,1152,50.66666666666667) translate(13.518518518518519 28.77777777777778)"/><use xlink:href="#d" transform="matrix(1,0,0,1,1152,50.66666666666667) translate(75.18518518518519 28.77777777777778)"/><use xlink:href="#g" transform="matrix(1,0,0,1,1152,50.66666666666667) translate(87.53086419753087 28.77777777777778)"/><use xlink:href="#b" transform="matrix(1,0,0,1,1152,50.66666666666667) translate(0 55.44444444444445)"/><use xlink:href="#J" transform="matrix(1,0,0,1,1152,50.66666666666667) translate(13.518518518518519 55.44444444444445)"/><use xlink:href="#d" transform="matrix(1,0,0,1,1152,50.66666666666667) translate(50.55555555555556 55.44444444444445)"/><use xlink:href="#g" transform="matrix(1,0,0,1,1152,50.66666666666667) translate(62.901234567901234 55.44444444444445)"/><use xlink:href="#b" transform="matrix(1,0,0,1,1152,50.66666666666667) translate(0 82.11111111111111)"/><use xlink:href="#K" transform="matrix(1,0,0,1,1152,50.66666666666667) translate(13.518518518518519 82.11111111111111)"/><use xlink:href="#L" transform="matrix(1,0,0,1,1152,50.66666666666667) translate(103.58024691358024 82.11111111111111)"/></g><path d="M1320-50.75V-2" stroke="#5e5e5e" stroke-width="2" fill="none"/><path d="M1320-80.1l-14.85 14.86L1320-50.4l14.85-14.84z" stroke="#5e5e5e" stroke-width="2" fill="#fff"/><path d="M1320.97-1h-1.94v-1.03h1.94z" stroke="#5e5e5e" stroke-width=".05" fill="#5e5e5e"/><path d="M1138 112H411.9a6 6 0 0 1-6-6v-236.75" stroke="#5e5e5e" stroke-width="2" fill="none"/><path d="M1139 112.97h-1.03v-1.94h1.03z" stroke="#5e5e5e" stroke-width=".05" fill="#5e5e5e"/><path d="M405.9-160.1l-14.85 14.86 14.85 14.85 14.85-14.84z" stroke="#5e5e5e" stroke-width="2" fill="#fff"/><defs><path fill="#282c33" d="M30 0v-248h187v28H63v79h144v27H63v87h162V0H30" id="M"/><path fill="#282c33" d="M117-194c89-4 53 116 60 194h-32v-121c0-31-8-49-39-48C34-167 62-67 57 0H25l-1-190h30c1 10-1 24 2 32 11-22 29-35 61-36" id="N"/><path fill="#282c33" d="M85-194c31 0 48 13 60 33l-1-100h32l1 261h-30c-2-10 0-23-3-31C134-8 116 4 85 4 32 4 16-35 15-94c0-66 23-100 70-100zm9 24c-40 0-46 34-46 75 0 40 6 74 45 74 42 0 51-32 51-76 0-42-9-74-50-73" id="O"/><path fill="#282c33" d="M100-194c63 0 86 42 84 106H49c0 40 14 67 53 68 26 1 43-12 49-29l28 8c-11 28-37 45-77 45C44 4 14-33 15-96c1-61 26-98 85-98zm52 81c6-60-76-77-97-28-3 7-6 17-6 28h103" id="P"/><path fill="#282c33" d="M114-163C36-179 61-72 57 0H25l-1-190h30c1 12-1 29 2 39 6-27 23-49 58-41v29" id="Q"/><path fill="#282c33" d="M96-169c-40 0-48 33-48 73s9 75 48 75c24 0 41-14 43-38l32 2c-6 37-31 61-74 61-59 0-76-41-82-99-10-93 101-131 147-64 4 7 5 14 7 22l-32 3c-4-21-16-35-41-35" id="R"/><path fill="#282c33" d="M100-194c62-1 85 37 85 99 1 63-27 99-86 99S16-35 15-95c0-66 28-99 85-99zM99-20c44 1 53-31 53-75 0-43-8-75-51-75s-53 32-53 75 10 74 51 75" id="S"/><g id="a"><use transform="matrix(0.06172839506172839,0,0,0.06172839506172839,0,0)" xlink:href="#M"/><use transform="matrix(0.06172839506172839,0,0,0.06172839506172839,14.814814814814813,0)" xlink:href="#N"/><use transform="matrix(0.06172839506172839,0,0,0.06172839506172839,27.160493827160494,0)" xlink:href="#O"/><use transform="matrix(0.06172839506172839,0,0,0.06172839506172839,39.50617283950617,0)" xlink:href="#P"/><use transform="matrix(0.06172839506172839,0,0,0.06172839506172839,51.85185185185185,0)" xlink:href="#Q"/><use transform="matrix(0.06172839506172839,0,0,0.06172839506172839,59.197530864197525,0)" xlink:href="#P"/><use transform="matrix(0.06172839506172839,0,0,0.06172839506172839,71.5432098765432,0)" xlink:href="#R"/><use transform="matrix(0.06172839506172839,0,0,0.06172839506172839,82.65432098765432,0)" xlink:href="#S"/></g><path fill="#282c33" d="M16-82v-28h88v28H16" id="T"/><use transform="matrix(0.06172839506172839,0,0,0.06172839506172839,0,0)" xlink:href="#T" id="b"/><path fill="#282c33" d="M24 0v-261h32V0H24" id="U"/><path fill="#282c33" d="M177-190C167-65 218 103 67 71c-23-6-38-20-44-43l32-5c15 47 100 32 89-28v-30C133-14 115 1 83 1 29 1 15-40 15-95c0-56 16-97 71-98 29-1 48 16 59 35 1-10 0-23 2-32h30zM94-22c36 0 50-32 50-73 0-42-14-75-50-75-39 0-46 34-46 75s6 73 46 73" id="V"/><path fill="#282c33" d="M141-36C126-15 110 5 73 4 37 3 15-17 15-53c-1-64 63-63 125-63 3-35-9-54-41-54-24 1-41 7-42 31l-33-3c5-37 33-52 76-52 45 0 72 20 72 64v82c-1 20 7 32 28 27v20c-31 9-61-2-59-35zM48-53c0 20 12 33 32 33 41-3 63-29 60-74-43 2-92-5-92 41" id="W"/><path fill="#282c33" d="M84 4C-5 8 30-112 23-190h32v120c0 31 7 50 39 49 72-2 45-101 50-169h31l1 190h-30c-1-10 1-25-2-33-11 22-28 36-60 37" id="X"/><g id="c"><use transform="matrix(0.06172839506172839,0,0,0.06172839506172839,0,0)" xlink:href="#U"/><use transform="matrix(0.06172839506172839,0,0,0.06172839506172839,4.876543209876543,0)" xlink:href="#S"/><use transform="matrix(0.06172839506172839,0,0,0.06172839506172839,17.22222222222222,0)" xlink:href="#V"/><use transform="matrix(0.06172839506172839,0,0,0.06172839506172839,29.5679012345679,0)" xlink:href="#Q"/><use transform="matrix(0.06172839506172839,0,0,0.06172839506172839,36.913580246913575,0)" xlink:href="#W"/><use transform="matrix(0.06172839506172839,0,0,0.06172839506172839,49.25925925925925,0)" xlink:href="#O"/><use transform="matrix(0.06172839506172839,0,0,0.06172839506172839,61.60493827160493,0)" xlink:href="#S"/><use transform="matrix(0.06172839506172839,0,0,0.06172839506172839,73.9506172839506,0)" xlink:href="#X"/><use transform="matrix(0.06172839506172839,0,0,0.06172839506172839,86.29629629629629,0)" xlink:href="#Q"/><use transform="matrix(0.06172839506172839,0,0,0.06172839506172839,93.64197530864197,0)" xlink:href="#S"/></g><path fill="#282c33" d="M33-154v-36h34v36H33zM33 0v-36h34V0H33" id="Y"/><use transform="matrix(0.06172839506172839,0,0,0.06172839506172839,0,0)" xlink:href="#Y" id="d"/><path fill="#282c33" d="M185-189c-5-48-123-54-124 2 14 75 158 14 163 119 3 78-121 87-175 55-17-10-28-26-33-46l33-7c5 56 141 63 141-1 0-78-155-14-162-118-5-82 145-84 179-34 5 7 8 16 11 25" id="Z"/><path fill="#282c33" d="M59-47c-2 24 18 29 38 22v24C64 9 27 4 27-40v-127H5v-23h24l9-43h21v43h35v23H59v120" id="aa"/><path fill="#282c33" d="M24-231v-30h32v30H24zM24 0v-190h32V0H24" id="ab"/><g id="e"><use transform="matrix(0.06172839506172839,0,0,0.06172839506172839,0,0)" xlink:href="#Z"/><use transform="matrix(0.06172839506172839,0,0,0.06172839506172839,14.814814814814813,0)" xlink:href="#aa"/><use transform="matrix(0.06172839506172839,0,0,0.06172839506172839,20.98765432098765,0)" xlink:href="#Q"/><use transform="matrix(0.06172839506172839,0,0,0.06172839506172839,28.33333333333333,0)" xlink:href="#ab"/><use transform="matrix(0.06172839506172839,0,0,0.06172839506172839,33.20987654320987,0)" xlink:href="#N"/><use transform="matrix(0.06172839506172839,0,0,0.06172839506172839,45.55555555555555,0)" xlink:href="#V"/></g><path fill="#282c33" d="M210-169c-67 3-38 105-44 169h-31v-121c0-29-5-50-35-48C34-165 62-65 56 0H25l-1-190h30c1 10-1 24 2 32 10-44 99-50 107 0 11-21 27-35 58-36 85-2 47 119 55 194h-31v-121c0-29-5-49-35-48" id="ac"/><g id="f"><use transform="matrix(0.06172839506172839,0,0,0.06172839506172839,0,0)" xlink:href="#N"/><use transform="matrix(0.06172839506172839,0,0,0.06172839506172839,12.345679012345679,0)" xlink:href="#X"/><use transform="matrix(0.06172839506172839,0,0,0.06172839506172839,24.691358024691358,0)" xlink:href="#ac"/><use transform="matrix(0.06172839506172839,0,0,0.06172839506172839,43.148148148148145,0)" xlink:href="#P"/><use transform="matrix(0.06172839506172839,0,0,0.06172839506172839,55.49382716049382,0)" xlink:href="#Q"/><use transform="matrix(0.06172839506172839,0,0,0.06172839506172839,62.8395061728395,0)" xlink:href="#S"/></g><path fill="#282c33" d="M33 0v-248h34V0H33" id="ad"/><g id="g"><use transform="matrix(0.06172839506172839,0,0,0.06172839506172839,0,0)" xlink:href="#ad"/><use transform="matrix(0.06172839506172839,0,0,0.06172839506172839,6.172839506172839,0)" xlink:href="#N"/><use transform="matrix(0.06172839506172839,0,0,0.06172839506172839,18.51851851851852,0)" xlink:href="#aa"/><use transform="matrix(0.06172839506172839,0,0,0.06172839506172839,24.691358024691358,0)" xlink:href="#P"/><use transform="matrix(0.06172839506172839,0,0,0.06172839506172839,37.03703703703704,0)" xlink:href="#V"/><use transform="matrix(0.06172839506172839,0,0,0.06172839506172839,49.382716049382715,0)" xlink:href="#P"/><use transform="matrix(0.06172839506172839,0,0,0.06172839506172839,61.72839506172839,0)" xlink:href="#Q"/></g><path fill="#282c33" d="M115-194c55 1 70 41 70 98S169 2 115 4C84 4 66-9 55-30l1 105H24l-1-265h31l2 30c10-21 28-34 59-34zm-8 174c40 0 45-34 45-75s-6-73-45-74c-42 0-51 32-51 76 0 43 10 73 51 73" id="ae"/><g id="h"><use transform="matrix(0.06172839506172839,0,0,0.06172839506172839,0,0)" xlink:href="#R"/><use transform="matrix(0.06172839506172839,0,0,0.06172839506172839,11.11111111111111,0)" xlink:href="#S"/><use transform="matrix(0.06172839506172839,0,0,0.06172839506172839,23.45679012345679,0)" xlink:href="#ac"/><use transform="matrix(0.06172839506172839,0,0,0.06172839506172839,41.91358024691358,0)" xlink:href="#ae"/><use transform="matrix(0.06172839506172839,0,0,0.06172839506172839,54.25925925925926,0)" xlink:href="#U"/><use transform="matrix(0.06172839506172839,0,0,0.06172839506172839,59.135802469135804,0)" xlink:href="#P"/><use transform="matrix(0.06172839506172839,0,0,0.06172839506172839,71.48148148148148,0)" xlink:href="#ac"/><use transform="matrix(0.06172839506172839,0,0,0.06172839506172839,89.93827160493827,0)" xlink:href="#P"/><use transform="matrix(0.06172839506172839,0,0,0.06172839506172839,102.28395061728395,0)" xlink:href="#N"/><use transform="matrix(0.06172839506172839,0,0,0.06172839506172839,114.62962962962963,0)" xlink:href="#aa"/><use transform="matrix(0.06172839506172839,0,0,0.06172839506172839,120.80246913580247,0)" xlink:href="#S"/></g><path fill="#282c33" d="M115-194c53 0 69 39 70 98 0 66-23 100-70 100C84 3 66-7 56-30L54 0H23l1-261h32v101c10-23 28-34 59-34zm-8 174c40 0 45-34 45-75 0-40-5-75-45-74-42 0-51 32-51 76 0 43 10 73 51 73" id="af"/><g id="i"><use transform="matrix(0.06172839506172839,0,0,0.06172839506172839,0,0)" xlink:href="#af"/><use transform="matrix(0.06172839506172839,0,0,0.06172839506172839,12.345679012345679,0)" xlink:href="#W"/><use transform="matrix(0.06172839506172839,0,0,0.06172839506172839,24.691358024691358,0)" xlink:href="#ab"/><use transform="matrix(0.06172839506172839,0,0,0.06172839506172839,29.5679012345679,0)" xlink:href="#Q"/><use transform="matrix(0.06172839506172839,0,0,0.06172839506172839,36.913580246913575,0)" xlink:href="#Q"/><use transform="matrix(0.06172839506172839,0,0,0.06172839506172839,44.25925925925925,0)" xlink:href="#S"/></g><g id="j"><use transform="matrix(0.06172839506172839,0,0,0.06172839506172839,0,0)" xlink:href="#R"/><use transform="matrix(0.06172839506172839,0,0,0.06172839506172839,11.11111111111111,0)" xlink:href="#ab"/><use transform="matrix(0.06172839506172839,0,0,0.06172839506172839,15.987654320987653,0)" xlink:href="#O"/><use transform="matrix(0.06172839506172839,0,0,0.06172839506172839,28.333333333333332,0)" xlink:href="#W"/><use transform="matrix(0.06172839506172839,0,0,0.06172839506172839,40.67901234567901,0)" xlink:href="#O"/><use transform="matrix(0.06172839506172839,0,0,0.06172839506172839,53.02469135802469,0)" xlink:href="#P"/></g><path fill="#282c33" d="M135-143c-3-34-86-38-87 0 15 53 115 12 119 90S17 21 10-45l28-5c4 36 97 45 98 0-10-56-113-15-118-90-4-57 82-63 122-42 12 7 21 19 24 35" id="ag"/><g id="k"><use transform="matrix(0.06172839506172839,0,0,0.06172839506172839,0,0)" xlink:href="#P"/><use transform="matrix(0.06172839506172839,0,0,0.06172839506172839,12.345679012345679,0)" xlink:href="#ag"/><use transform="matrix(0.06172839506172839,0,0,0.06172839506172839,23.45679012345679,0)" xlink:href="#aa"/><use transform="matrix(0.06172839506172839,0,0,0.06172839506172839,29.62962962962963,0)" xlink:href="#W"/><use transform="matrix(0.06172839506172839,0,0,0.06172839506172839,41.97530864197531,0)" xlink:href="#O"/><use transform="matrix(0.06172839506172839,0,0,0.06172839506172839,54.32098765432099,0)" xlink:href="#S"/></g><g id="l"><use transform="matrix(0.06172839506172839,0,0,0.06172839506172839,0,0)" xlink:href="#R"/><use transform="matrix(0.06172839506172839,0,0,0.06172839506172839,11.11111111111111,0)" xlink:href="#P"/><use transform="matrix(0.06172839506172839,0,0,0.06172839506172839,23.45679012345679,0)" xlink:href="#ae"/></g><g id="m"><use transform="matrix(0.06172839506172839,0,0,0.06172839506172839,0,0)" xlink:href="#Z"/><use transform="matrix(0.06172839506172839,0,0,0.06172839506172839,14.814814814814813,0)" xlink:href="#aa"/><use transform="matrix(0.06172839506172839,0,0,0.06172839506172839,20.98765432098765,0)" xlink:href="#Q"/><use transform="matrix(0.06172839506172839,0,0,0.06172839506172839,28.33333333333333,0)" xlink:href="#ab"/><use transform="matrix(0.06172839506172839,0,0,0.06172839506172839,33.20987654320987,0)" xlink:href="#N"/><use transform="matrix(0.06172839506172839,0,0,0.06172839506172839,45.55555555555555,0)" xlink:href="#V"/></g><path fill="#282c33" d="M232-93c-1 65-40 97-104 97C67 4 28-28 28-90v-158h33c8 89-33 224 67 224 102 0 64-133 71-224h33v155" id="ah"/><g id="n"><use transform="matrix(0.06172839506172839,0,0,0.06172839506172839,0,0)" xlink:href="#ah"/><use transform="matrix(0.06172839506172839,0,0,0.06172839506172839,15.987654320987653,0)" xlink:href="#ag"/><use transform="matrix(0.06172839506172839,0,0,0.06172839506172839,27.098765432098766,0)" xlink:href="#X"/><use transform="matrix(0.06172839506172839,0,0,0.06172839506172839,39.44444444444444,0)" xlink:href="#W"/><use transform="matrix(0.06172839506172839,0,0,0.06172839506172839,51.79012345679012,0)" xlink:href="#Q"/><use transform="matrix(0.06172839506172839,0,0,0.06172839506172839,59.1358024691358,0)" xlink:href="#ab"/><use transform="matrix(0.06172839506172839,0,0,0.06172839506172839,64.01234567901234,0)" xlink:href="#S"/></g><g id="o"><use transform="matrix(0.06172839506172839,0,0,0.06172839506172839,0,0)" xlink:href="#N"/><use transform="matrix(0.06172839506172839,0,0,0.06172839506172839,12.345679012345679,0)" xlink:href="#S"/><use transform="matrix(0.06172839506172839,0,0,0.06172839506172839,24.691358024691358,0)" xlink:href="#ac"/><use transform="matrix(0.06172839506172839,0,0,0.06172839506172839,43.148148148148145,0)" xlink:href="#P"/></g><g id="p"><use transform="matrix(0.06172839506172839,0,0,0.06172839506172839,0,0)" xlink:href="#P"/><use transform="matrix(0.06172839506172839,0,0,0.06172839506172839,12.345679012345679,0)" xlink:href="#ac"/><use transform="matrix(0.06172839506172839,0,0,0.06172839506172839,30.80246913580247,0)" xlink:href="#W"/><use transform="matrix(0.06172839506172839,0,0,0.06172839506172839,43.148148148148145,0)" xlink:href="#U"/></g><path fill="#282c33" d="M106-169C34-169 62-67 57 0H25v-261h32l-1 103c12-21 28-36 61-36 89 0 53 116 60 194h-32v-121c2-32-8-49-39-48" id="ai"/><g id="q"><use transform="matrix(0.06172839506172839,0,0,0.06172839506172839,0,0)" xlink:href="#ag"/><use transform="matrix(0.06172839506172839,0,0,0.06172839506172839,11.11111111111111,0)" xlink:href="#P"/><use transform="matrix(0.06172839506172839,0,0,0.06172839506172839,23.45679012345679,0)" xlink:href="#N"/><use transform="matrix(0.06172839506172839,0,0,0.06172839506172839,35.80246913580247,0)" xlink:href="#ai"/><use transform="matrix(0.06172839506172839,0,0,0.06172839506172839,48.148148148148145,0)" xlink:href="#W"/></g><path fill="#282c33" d="M205 0l-28-72H64L36 0H1l101-248h38L239 0h-34zm-38-99l-47-123c-12 45-31 82-46 123h93" id="aj"/><g id="r"><use transform="matrix(0.06172839506172839,0,0,0.06172839506172839,0,0)" xlink:href="#aj"/><use transform="matrix(0.06172839506172839,0,0,0.06172839506172839,14.814814814814813,0)" xlink:href="#U"/><use transform="matrix(0.06172839506172839,0,0,0.06172839506172839,19.691358024691354,0)" xlink:href="#X"/><use transform="matrix(0.06172839506172839,0,0,0.06172839506172839,32.03703703703703,0)" xlink:href="#N"/><use transform="matrix(0.06172839506172839,0,0,0.06172839506172839,44.38271604938271,0)" xlink:href="#S"/></g><g id="s"><use transform="matrix(0.06172839506172839,0,0,0.06172839506172839,0,0)" xlink:href="#Q"/><use transform="matrix(0.06172839506172839,0,0,0.06172839506172839,7.345679012345679,0)" xlink:href="#V"/></g><path fill="#282c33" d="M30-248c87 1 191-15 191 75 0 78-77 80-158 76V0H30v-248zm33 125c57 0 124 11 124-50 0-59-68-47-124-48v98" id="ak"/><path fill="#282c33" d="M101-234c-31-9-42 10-38 44h38v23H63V0H32v-167H5v-23h27c-7-52 17-82 69-68v24" id="al"/><g id="t"><use transform="matrix(0.06172839506172839,0,0,0.06172839506172839,0,0)" xlink:href="#ak"/><use transform="matrix(0.06172839506172839,0,0,0.06172839506172839,14.814814814814813,0)" xlink:href="#Q"/><use transform="matrix(0.06172839506172839,0,0,0.06172839506172839,22.160493827160494,0)" xlink:href="#S"/><use transform="matrix(0.06172839506172839,0,0,0.06172839506172839,34.50617283950617,0)" xlink:href="#al"/><use transform="matrix(0.06172839506172839,0,0,0.06172839506172839,40.67901234567901,0)" xlink:href="#P"/><use transform="matrix(0.06172839506172839,0,0,0.06172839506172839,53.02469135802469,0)" xlink:href="#ag"/><use transform="matrix(0.06172839506172839,0,0,0.06172839506172839,64.1358024691358,0)" xlink:href="#ag"/><use transform="matrix(0.06172839506172839,0,0,0.06172839506172839,75.24691358024691,0)" xlink:href="#S"/><use transform="matrix(0.06172839506172839,0,0,0.06172839506172839,87.5925925925926,0)" xlink:href="#Q"/></g><g id="u"><use transform="matrix(0.06172839506172839,0,0,0.06172839506172839,0,0)" xlink:href="#M"/><use transform="matrix(0.06172839506172839,0,0,0.06172839506172839,14.814814814814813,0)" xlink:href="#ac"/><use transform="matrix(0.06172839506172839,0,0,0.06172839506172839,33.2716049382716,0)" xlink:href="#ae"/><use transform="matrix(0.06172839506172839,0,0,0.06172839506172839,45.61728395061728,0)" xlink:href="#Q"/><use transform="matrix(0.06172839506172839,0,0,0.06172839506172839,52.962962962962955,0)" xlink:href="#P"/><use transform="matrix(0.06172839506172839,0,0,0.06172839506172839,65.30864197530863,0)" xlink:href="#ag"/><use transform="matrix(0.06172839506172839,0,0,0.06172839506172839,76.41975308641975,0)" xlink:href="#W"/></g><g id="v"><use transform="matrix(0.06172839506172839,0,0,0.06172839506172839,0,0)" xlink:href="#ad"/><use transform="matrix(0.06172839506172839,0,0,0.06172839506172839,6.172839506172839,0)" xlink:href="#N"/><use transform="matrix(0.06172839506172839,0,0,0.06172839506172839,18.51851851851852,0)" xlink:href="#ag"/><use transform="matrix(0.06172839506172839,0,0,0.06172839506172839,29.62962962962963,0)" xlink:href="#aa"/><use transform="matrix(0.06172839506172839,0,0,0.06172839506172839,35.80246913580247,0)" xlink:href="#ab"/><use transform="matrix(0.06172839506172839,0,0,0.06172839506172839,40.67901234567901,0)" xlink:href="#aa"/><use transform="matrix(0.06172839506172839,0,0,0.06172839506172839,46.851851851851855,0)" xlink:href="#X"/><use transform="matrix(0.06172839506172839,0,0,0.06172839506172839,59.19753086419753,0)" xlink:href="#ab"/><use transform="matrix(0.06172839506172839,0,0,0.06172839506172839,64.07407407407408,0)" xlink:href="#R"/><use transform="matrix(0.06172839506172839,0,0,0.06172839506172839,75.18518518518519,0)" xlink:href="#W"/><use transform="matrix(0.06172839506172839,0,0,0.06172839506172839,87.53086419753087,0)" xlink:href="#S"/></g><g id="w"><use transform="matrix(0.06172839506172839,0,0,0.06172839506172839,0,0)" xlink:href="#N"/><use transform="matrix(0.06172839506172839,0,0,0.06172839506172839,12.345679012345679,0)" xlink:href="#S"/><use transform="matrix(0.06172839506172839,0,0,0.06172839506172839,24.691358024691358,0)" xlink:href="#ac"/><use transform="matrix(0.06172839506172839,0,0,0.06172839506172839,43.148148148148145,0)" xlink:href="#P"/></g><path fill="#282c33" d="M30-248c118-7 216 8 213 122C240-48 200 0 122 0H30v-248zM63-27c89 8 146-16 146-99s-60-101-146-95v194" id="am"/><g id="x"><use transform="matrix(0.06172839506172839,0,0,0.06172839506172839,0,0)" xlink:href="#am"/><use transform="matrix(0.06172839506172839,0,0,0.06172839506172839,15.987654320987653,0)" xlink:href="#P"/><use transform="matrix(0.06172839506172839,0,0,0.06172839506172839,28.333333333333332,0)" xlink:href="#ae"/><use transform="matrix(0.06172839506172839,0,0,0.06172839506172839,40.67901234567901,0)" xlink:href="#W"/><use transform="matrix(0.06172839506172839,0,0,0.06172839506172839,53.02469135802469,0)" xlink:href="#Q"/><use transform="matrix(0.06172839506172839,0,0,0.06172839506172839,60.37037037037037,0)" xlink:href="#aa"/><use transform="matrix(0.06172839506172839,0,0,0.06172839506172839,66.5432098765432,0)" xlink:href="#W"/><use transform="matrix(0.06172839506172839,0,0,0.06172839506172839,78.88888888888889,0)" xlink:href="#ac"/><use transform="matrix(0.06172839506172839,0,0,0.06172839506172839,97.34567901234567,0)" xlink:href="#P"/><use transform="matrix(0.06172839506172839,0,0,0.06172839506172839,109.69135802469135,0)" xlink:href="#N"/><use transform="matrix(0.06172839506172839,0,0,0.06172839506172839,122.03703703703704,0)" xlink:href="#aa"/><use transform="matrix(0.06172839506172839,0,0,0.06172839506172839,128.20987654320987,0)" xlink:href="#S"/><use transform="matrix(0.06172839506172839,0,0,0.06172839506172839,140.55555555555554,0)" xlink:href="#ag"/></g><path fill="#282c33" d="M212-179c-10-28-35-45-73-45-59 0-87 40-87 99 0 60 29 101 89 101 43 0 62-24 78-52l27 14C228-24 195 4 139 4 59 4 22-46 18-125c-6-104 99-153 187-111 19 9 31 26 39 46" id="an"/><g id="y"><use transform="matrix(0.06172839506172839,0,0,0.06172839506172839,0,0)" xlink:href="#an"/><use transform="matrix(0.06172839506172839,0,0,0.06172839506172839,15.987654320987653,0)" xlink:href="#X"/><use transform="matrix(0.06172839506172839,0,0,0.06172839506172839,28.333333333333332,0)" xlink:href="#Q"/><use transform="matrix(0.06172839506172839,0,0,0.06172839506172839,35.67901234567901,0)" xlink:href="#ag"/><use transform="matrix(0.06172839506172839,0,0,0.06172839506172839,46.79012345679013,0)" xlink:href="#S"/></g><path fill="#282c33" d="M63-220v92h138v28H63V0H30v-248h175v28H63" id="ao"/><g id="z"><use transform="matrix(0.06172839506172839,0,0,0.06172839506172839,0,0)" xlink:href="#ak"/><use transform="matrix(0.06172839506172839,0,0,0.06172839506172839,14.814814814814813,0)" xlink:href="#P"/><use transform="matrix(0.06172839506172839,0,0,0.06172839506172839,27.160493827160494,0)" xlink:href="#ag"/><use transform="matrix(0.06172839506172839,0,0,0.06172839506172839,38.27160493827161,0)" xlink:href="#ag"/><use transform="matrix(0.06172839506172839,0,0,0.06172839506172839,49.38271604938272,0)" xlink:href="#S"/><use transform="matrix(0.06172839506172839,0,0,0.06172839506172839,61.7283950617284,0)" xlink:href="#W"/><use transform="matrix(0.06172839506172839,0,0,0.06172839506172839,74.07407407407408,0)" xlink:href="#ao"/><use transform="matrix(0.06172839506172839,0,0,0.06172839506172839,87.5925925925926,0)" xlink:href="#ab"/><use transform="matrix(0.06172839506172839,0,0,0.06172839506172839,92.46913580246914,0)" xlink:href="#ag"/><use transform="matrix(0.06172839506172839,0,0,0.06172839506172839,103.58024691358025,0)" xlink:href="#ab"/><use transform="matrix(0.06172839506172839,0,0,0.06172839506172839,108.4567901234568,0)" xlink:href="#R"/><use transform="matrix(0.06172839506172839,0,0,0.06172839506172839,119.56790123456791,0)" xlink:href="#W"/></g><g id="A"><use transform="matrix(0.06172839506172839,0,0,0.06172839506172839,0,0)" xlink:href="#R"/><use transform="matrix(0.06172839506172839,0,0,0.06172839506172839,11.11111111111111,0)" xlink:href="#ae"/><use transform="matrix(0.06172839506172839,0,0,0.06172839506172839,23.45679012345679,0)" xlink:href="#al"/></g><g id="B"><use transform="matrix(0.06172839506172839,0,0,0.06172839506172839,0,0)" xlink:href="#ag"/><use transform="matrix(0.06172839506172839,0,0,0.06172839506172839,11.11111111111111,0)" xlink:href="#W"/><use transform="matrix(0.06172839506172839,0,0,0.06172839506172839,23.45679012345679,0)" xlink:href="#U"/><use transform="matrix(0.06172839506172839,0,0,0.06172839506172839,28.333333333333336,0)" xlink:href="#O"/><use transform="matrix(0.06172839506172839,0,0,0.06172839506172839,40.67901234567901,0)" xlink:href="#S"/></g><g id="C"><use transform="matrix(0.06172839506172839,0,0,0.06172839506172839,0,0)" xlink:href="#ad"/><use transform="matrix(0.06172839506172839,0,0,0.06172839506172839,6.172839506172839,0)" xlink:href="#N"/><use transform="matrix(0.06172839506172839,0,0,0.06172839506172839,18.51851851851852,0)" xlink:href="#aa"/><use transform="matrix(0.06172839506172839,0,0,0.06172839506172839,24.691358024691358,0)" xlink:href="#P"/><use transform="matrix(0.06172839506172839,0,0,0.06172839506172839,37.03703703703704,0)" xlink:href="#V"/><use transform="matrix(0.06172839506172839,0,0,0.06172839506172839,49.382716049382715,0)" xlink:href="#P"/><use transform="matrix(0.06172839506172839,0,0,0.06172839506172839,61.72839506172839,0)" xlink:href="#Q"/></g><path fill="#282c33" d="M137 0h-34L2-248h35l83 218 83-218h36" id="ap"/><g id="D"><use transform="matrix(0.06172839506172839,0,0,0.06172839506172839,0,0)" xlink:href="#ap"/><use transform="matrix(0.06172839506172839,0,0,0.06172839506172839,13.148148148148147,0)" xlink:href="#W"/><use transform="matrix(0.06172839506172839,0,0,0.06172839506172839,25.493827160493826,0)" xlink:href="#N"/><use transform="matrix(0.06172839506172839,0,0,0.06172839506172839,37.839506172839506,0)" xlink:href="#aa"/><use transform="matrix(0.06172839506172839,0,0,0.06172839506172839,44.01234567901235,0)" xlink:href="#W"/><use transform="matrix(0.06172839506172839,0,0,0.06172839506172839,56.358024691358025,0)" xlink:href="#V"/><use transform="matrix(0.06172839506172839,0,0,0.06172839506172839,68.70370370370371,0)" xlink:href="#P"/><use transform="matrix(0.06172839506172839,0,0,0.06172839506172839,81.0493827160494,0)" xlink:href="#ac"/></g><g id="E"><use transform="matrix(0.06172839506172839,0,0,0.06172839506172839,0,0)" xlink:href="#aa"/><use transform="matrix(0.06172839506172839,0,0,0.06172839506172839,6.172839506172839,0)" xlink:href="#ab"/><use transform="matrix(0.06172839506172839,0,0,0.06172839506172839,11.049382716049383,0)" xlink:href="#aa"/><use transform="matrix(0.06172839506172839,0,0,0.06172839506172839,17.22222222222222,0)" xlink:href="#X"/><use transform="matrix(0.06172839506172839,0,0,0.06172839506172839,29.5679012345679,0)" xlink:href="#U"/><use transform="matrix(0.06172839506172839,0,0,0.06172839506172839,34.44444444444444,0)" xlink:href="#S"/></g><g id="F"><use transform="matrix(0.06172839506172839,0,0,0.06172839506172839,0,0)" xlink:href="#O"/><use transform="matrix(0.06172839506172839,0,0,0.06172839506172839,12.345679012345679,0)" xlink:href="#P"/><use transform="matrix(0.06172839506172839,0,0,0.06172839506172839,24.691358024691358,0)" xlink:href="#ag"/><use transform="matrix(0.06172839506172839,0,0,0.06172839506172839,35.80246913580247,0)" xlink:href="#R"/><use transform="matrix(0.06172839506172839,0,0,0.06172839506172839,46.91358024691358,0)" xlink:href="#Q"/><use transform="matrix(0.06172839506172839,0,0,0.06172839506172839,54.25925925925926,0)" xlink:href="#ab"/><use transform="matrix(0.06172839506172839,0,0,0.06172839506172839,59.135802469135804,0)" xlink:href="#R"/><use transform="matrix(0.06172839506172839,0,0,0.06172839506172839,70.24691358024691,0)" xlink:href="#W"/><use transform="matrix(0.06172839506172839,0,0,0.06172839506172839,82.5925925925926,0)" xlink:href="#S"/></g><g id="G"><use transform="matrix(0.06172839506172839,0,0,0.06172839506172839,0,0)" xlink:href="#ae"/><use transform="matrix(0.06172839506172839,0,0,0.06172839506172839,12.345679012345679,0)" xlink:href="#Q"/><use transform="matrix(0.06172839506172839,0,0,0.06172839506172839,19.691358024691358,0)" xlink:href="#P"/><use transform="matrix(0.06172839506172839,0,0,0.06172839506172839,32.03703703703704,0)" xlink:href="#R"/><use transform="matrix(0.06172839506172839,0,0,0.06172839506172839,43.14814814814815,0)" xlink:href="#S"/></g><g id="H"><use transform="matrix(0.06172839506172839,0,0,0.06172839506172839,0,0)" xlink:href="#X"/><use transform="matrix(0.06172839506172839,0,0,0.06172839506172839,12.345679012345679,0)" xlink:href="#Q"/><use transform="matrix(0.06172839506172839,0,0,0.06172839506172839,19.691358024691358,0)" xlink:href="#U"/><use transform="matrix(0.06172839506172839,0,0,0.06172839506172839,24.5679012345679,0)" xlink:href="#ad"/><use transform="matrix(0.06172839506172839,0,0,0.06172839506172839,30.740740740740737,0)" xlink:href="#ac"/><use transform="matrix(0.06172839506172839,0,0,0.06172839506172839,49.197530864197525,0)" xlink:href="#W"/><use transform="matrix(0.06172839506172839,0,0,0.06172839506172839,61.5432098765432,0)" xlink:href="#V"/><use transform="matrix(0.06172839506172839,0,0,0.06172839506172839,73.88888888888889,0)" xlink:href="#P"/></g><g id="I"><use transform="matrix(0.06172839506172839,0,0,0.06172839506172839,0,0)" xlink:href="#an"/><use transform="matrix(0.06172839506172839,0,0,0.06172839506172839,15.987654320987653,0)" xlink:href="#S"/><use transform="matrix(0.06172839506172839,0,0,0.06172839506172839,28.333333333333332,0)" xlink:href="#ac"/><use transform="matrix(0.06172839506172839,0,0,0.06172839506172839,46.79012345679012,0)" xlink:href="#ae"/><use transform="matrix(0.06172839506172839,0,0,0.06172839506172839,59.1358024691358,0)" xlink:href="#Q"/><use transform="matrix(0.06172839506172839,0,0,0.06172839506172839,66.48148148148148,0)" xlink:href="#W"/></g><path fill="#282c33" d="M145-31C134-9 116 4 85 4 32 4 16-35 15-94c0-59 17-99 70-100 32-1 48 14 60 33 0-11-1-24 2-32h30l-1 268h-32zM93-21c41 0 51-33 51-76s-8-73-50-73c-40 0-46 35-46 75s5 74 45 74" id="aq"/><g id="J"><use transform="matrix(0.06172839506172839,0,0,0.06172839506172839,0,0)" xlink:href="#aq"/><use transform="matrix(0.06172839506172839,0,0,0.06172839506172839,12.345679012345679,0)" xlink:href="#N"/><use transform="matrix(0.06172839506172839,0,0,0.06172839506172839,24.691358024691358,0)" xlink:href="#aa"/></g><g id="K"><use transform="matrix(0.06172839506172839,0,0,0.06172839506172839,0,0)" xlink:href="#ab"/><use transform="matrix(0.06172839506172839,0,0,0.06172839506172839,4.876543209876543,0)" xlink:href="#N"/><use transform="matrix(0.06172839506172839,0,0,0.06172839506172839,17.22222222222222,0)" xlink:href="#ag"/><use transform="matrix(0.06172839506172839,0,0,0.06172839506172839,28.333333333333332,0)" xlink:href="#aa"/><use transform="matrix(0.06172839506172839,0,0,0.06172839506172839,34.50617283950617,0)" xlink:href="#W"/><use transform="matrix(0.06172839506172839,0,0,0.06172839506172839,46.85185185185185,0)" xlink:href="#N"/><use transform="matrix(0.06172839506172839,0,0,0.06172839506172839,59.197530864197525,0)" xlink:href="#aa"/><use transform="matrix(0.06172839506172839,0,0,0.06172839506172839,65.37037037037037,0)" xlink:href="#P"/><use transform="matrix(0.06172839506172839,0,0,0.06172839506172839,77.71604938271605,0)" xlink:href="#Y"/></g><path fill="#282c33" d="M30 0v-248h33v221h125V0H30" id="ar"/><path fill="#282c33" d="M127-220V0H93v-220H8v-28h204v28h-85" id="as"/><g id="L"><use transform="matrix(0.06172839506172839,0,0,0.06172839506172839,0,0)" xlink:href="#ar"/><use transform="matrix(0.06172839506172839,0,0,0.06172839506172839,12.345679012345679,0)" xlink:href="#S"/><use transform="matrix(0.06172839506172839,0,0,0.06172839506172839,24.691358024691358,0)" xlink:href="#R"/><use transform="matrix(0.06172839506172839,0,0,0.06172839506172839,35.80246913580247,0)" xlink:href="#W"/><use transform="matrix(0.06172839506172839,0,0,0.06172839506172839,48.148148148148145,0)" xlink:href="#U"/><use transform="matrix(0.06172839506172839,0,0,0.06172839506172839,53.02469135802469,0)" xlink:href="#am"/><use transform="matrix(0.06172839506172839,0,0,0.06172839506172839,69.01234567901234,0)" xlink:href="#W"/><use transform="matrix(0.06172839506172839,0,0,0.06172839506172839,81.35802469135803,0)" xlink:href="#aa"/><use transform="matrix(0.06172839506172839,0,0,0.06172839506172839,87.53086419753086,0)" xlink:href="#P"/><use transform="matrix(0.06172839506172839,0,0,0.06172839506172839,99.87654320987654,0)" xlink:href="#as"/><use transform="matrix(0.06172839506172839,0,0,0.06172839506172839,112.5925925925926,0)" xlink:href="#ab"/><use transform="matrix(0.06172839506172839,0,0,0.06172839506172839,117.46913580246914,0)" xlink:href="#ac"/><use transform="matrix(0.06172839506172839,0,0,0.06172839506172839,135.92592592592592,0)" xlink:href="#P"/></g></defs></g></svg>